<?xml version="1.0" encoding="UTF-8" standalone="no"?>
<!-- Created with Inkscape (http://www.inkscape.org/) -->

<svg
   width="99.153984mm"
   height="117.12778mm"
   viewBox="0 0 99.153984 117.12778"
   version="1.1"
   id="svg5"
   xml:space="preserve"
   inkscape:export-filename="columbus.svg"
   inkscape:export-xdpi="96"
   inkscape:export-ydpi="96"
   sodipodi:docname="columbus_alt.svg"
   inkscape:version="1.2 (dc2aedaf03, 2022-05-15)"
   xmlns:inkscape="http://www.inkscape.org/namespaces/inkscape"
   xmlns:sodipodi="http://sodipodi.sourceforge.net/DTD/sodipodi-0.dtd"
   xmlns="http://www.w3.org/2000/svg"
   xmlns:svg="http://www.w3.org/2000/svg"><sodipodi:namedview
     id="namedview7"
     pagecolor="#505050"
     bordercolor="#eeeeee"
     borderopacity="1"
     inkscape:showpageshadow="0"
     inkscape:pageopacity="0"
     inkscape:pagecheckerboard="0"
     inkscape:deskcolor="#505050"
     inkscape:document-units="mm"
     showgrid="false"
     inkscape:zoom="1.4024329"
     inkscape:cx="16.043548"
     inkscape:cy="166.8529"
     inkscape:window-width="1920"
     inkscape:window-height="1050"
     inkscape:window-x="0"
     inkscape:window-y="0"
     inkscape:window-maximized="1"
     inkscape:current-layer="layer1" /><defs
     id="defs2" /><g
     inkscape:label="Layer 1"
     inkscape:groupmode="layer"
     id="layer1"
     transform="translate(-50.719907,-147.38589)"><path
       style="line-height:normal;text-indent:0;text-align:start;text-decoration-line:none;text-decoration-style:solid;text-decoration-color:#000000;text-transform:none;isolation:auto;mix-blend-mode:normal;stroke-width:2.53468"
       d="m 74.860518,149.35966 c -0.485108,0.0261 -0.952504,0.19102 -1.346548,0.47517 -24.095861,16.78439 -30.037141,49.999 -13.252643,74.09499 9.803749,14.07433 25.215631,21.89775 41.139133,22.67355 v 11.58048 c -10.184721,0.68784 -21.203241,1.40479 -21.203241,1.40479 -2.593164,1.02902 -1.864039,4.88103 0.925813,4.89113 h 22.386418 c 0.27372,0.0452 0.55302,0.0452 0.82674,0 h 22.41116 c 2.78963,-0.0105 3.51837,-3.8622 0.92541,-4.89113 0,0 -11.01854,-0.71695 -21.20326,-1.40479 v -11.57062 c 9.68226,-0.44834 19.35645,-3.48901 27.88649,-9.43075 2.9157,-1.90396 -0.0991,-6.23299 -2.89609,-4.15854 -8.29383,5.77725 -17.75973,8.57401 -27.14389,8.64367 -0.13897,-0.0245 -0.27974,-0.0373 -0.42085,-0.0384 -0.0694,1.5e-4 -0.13874,0.003 -0.20788,0.009 -15.118965,-0.0861 -29.955861,-7.24047 -39.267824,-20.60886 -15.218446,-21.84776 -9.857594,-51.82198 11.990241,-67.04043 2.022521,-1.36404 1.139716,-4.51789 -1.29704,-4.63372 -0.08409,-0.004 -0.168339,-0.004 -0.25243,0 z"
       id="path219"
       sodipodi:nodetypes="ccscccccccccccccccscccc" /><path
       d="m 104.02542,235.41497 v 0 c 23.29851,0 42.1806,-18.88209 42.1806,-42.18061 0,-23.2985 -18.88209,-42.1806 -42.1806,-42.1806 -23.298512,0 -42.180599,18.8821 -42.180599,42.1806 0,23.29852 18.882087,42.18061 42.180599,42.18061 z m 0,3.66787 v 0 c -25.319587,0 -45.848477,-20.52889 -45.848477,-45.84848 0,-25.31958 20.52889,-45.84847 45.848477,-45.84847 9.65374,0 18.61105,2.9843 25.99961,8.0806 11.98999,8.27016 19.84886,22.10203 19.84886,37.76787 0,25.31959 -20.52889,45.84848 -45.84847,45.84848 z m -23.289155,-22.70902 26.893815,-18.95737 1.27696,1.32365 -31.693278,22.43668 -0.06366,0.0617 -1.30746,-1.12193 0.336845,-0.46785 2.158205,-2.82644 -2.365497,3.25476 22.552413,-31.74443 1.226419,1.21459 z m 51.123965,-50.78018 -22.59499,32.86183 -10.451584,-10.46093 z"
       id="path326"
       style="stroke-width:0.0935682"
       sodipodi:nodetypes="ssssssssssssscccccccccccccccc" /><g
       id="g3514"
       transform="matrix(0.1421688,0,0,0.1421688,70.795973,160.65622)"
       style="fill:#000000;fill-opacity:0.2"><g
         id="g3456"
         style="fill:#000000;fill-opacity:0.2">
	<path
   d="M 151.245,222.446 C 148.054,237.039 135.036,248 119.5,248 c -4.142,0 -7.5,3.357 -7.5,7.5 0,4.143 3.358,7.5 7.5,7.5 23.774,0 43.522,-17.557 46.966,-40.386 14.556,-1.574 27.993,-8.06 38.395,-18.677 2.899,-2.959 2.85,-7.708 -0.109,-10.606 -2.958,-2.897 -7.707,-2.851 -10.606,0.108 C 184.947,202.829 172.643,208 159.5,208 132.757,208 111,186.243 111,159.5 c 0,-4.143 -3.358,-7.5 -7.5,-7.5 -4.142,0 -7.5,3.357 -7.5,7.5 0,32.215 24.119,58.884 55.245,62.946 z"
   id="path3446"
   style="fill:#000000;fill-opacity:0.2" />
	<path
   d="m 183,287.5 c 0,-4.143 -3.358,-7.5 -7.5,-7.5 -35.014,0 -63.5,28.486 -63.5,63.5 0,0.362 0.013,0.725 0.019,1.088 C 109.23,344.212 106.39,344 103.5,344 c -4.142,0 -7.5,3.357 -7.5,7.5 0,4.143 3.358,7.5 7.5,7.5 26.743,0 48.5,21.757 48.5,48.5 0,4.143 3.358,7.5 7.5,7.5 4.142,0 7.5,-3.357 7.5,-7.5 0,-26.611 -16.462,-49.437 -39.731,-58.867 -0.178,-1.699 -0.269,-3.418 -0.269,-5.133 0,-26.743 21.757,-48.5 48.5,-48.5 4.142,0 7.5,-3.357 7.5,-7.5 z"
   id="path3448"
   style="fill:#000000;fill-opacity:0.2" />
	<path
   d="m 439,223.5 c 0,-17.075 -6.82,-33.256 -18.875,-45.156 C 422.034,172.236 423,165.918 423,159.5 423,128.626 400.848,102.841 371.606,97.171 373.841,91.6 375,85.628 375,79.5 375,59.943 363.117,43.113 346.194,35.839 317.999,13.383 287.162,0 263.5,0 250.347,0 238.683,6.468 231.5,16.384 224.317,6.468 212.653,0 199.5,0 175.838,0 145.001,13.383 116.806,35.839 99.883,43.113 88,59.943 88,79.5 88,85.628 89.159,91.6 91.394,97.171 62.152,102.841 40,128.626 40,159.5 c 0,6.418 0.965,12.735 2.875,18.844 C 30.82,190.244 24,206.425 24,223.5 c 0,13.348 4.149,25.741 11.213,35.975 C 27.872,270.087 24,282.466 24,295.5 c 0,23.088 12.587,44.242 32.516,55.396 -0.343,2.852 -0.516,5.73 -0.516,8.604 0,31.144 20.315,58.679 49.79,68.063 12.821,21.942 36.175,35.437 61.71,35.437 27.995,0 52.269,-16.181 64,-39.674 11.731,23.493 36.005,39.674 64,39.674 25.535,0 48.889,-13.495 61.71,-35.437 29.475,-9.385 49.79,-36.92 49.79,-68.063 0,-2.874 -0.173,-5.752 -0.516,-8.604 C 426.413,339.742 439,318.588 439,295.5 439,282.466 435.128,270.087 427.787,259.475 434.851,249.241 439,236.848 439,223.5 Z M 167.5,448 c -21.029,0 -40.191,-11.594 -50.009,-30.256 -0.973,-1.849 -2.671,-3.208 -4.688,-3.751 C 88.19,407.369 71,384.961 71,359.5 c 0,-3.81 0.384,-7.626 1.141,-11.344 0.702,-3.447 -1.087,-6.92 -4.302,-8.35 C 50.32,332.018 39,314.626 39,295.5 39,286.801 41.256,278.486 45.561,271.121 56.757,280.992 71.436,287 87.5,287 91.642,287 95,283.643 95,279.5 95,275.357 91.642,272 87.5,272 60.757,272 39,250.243 39,223.5 c 0,-14.396 6.352,-27.964 17.428,-37.221 2.5,-2.09 3.365,-5.555 2.14,-8.574 C 56.2,171.869 55,165.744 55,159.5 55,132.757 76.757,111 103.5,111 c 26.743,0 48.5,21.757 48.5,48.5 0,4.143 3.358,7.5 7.5,7.5 4.142,0 7.5,-3.357 7.5,-7.5 C 167,125.858 140.698,98.257 107.579,96.145 104.577,91.127 103,85.421 103,79.5 c 0,-13.369 8.116,-24.875 19.678,-29.859 0.447,-0.133 0.885,-0.307 1.308,-0.527 C 127.568,47.752 131.447,47 135.5,47 c 12.557,0 23.767,7.021 29.256,18.325 1.81,3.727 6.298,5.281 10.023,3.47 3.726,-1.809 5.28,-6.296 3.47,-10.022 C 171.983,45.87 160.124,36.596 146.467,33.311 165.609,21.631 184.454,15 199.5,15 213.009,15 224,25.99 224,39.5 v 97.051 C 217.261,131.205 208.75,128 199.5,128 c -4.142,0 -7.5,3.357 -7.5,7.5 0,4.143 3.358,7.5 7.5,7.5 13.509,0 24.5,10.99 24.5,24.5 v 180.279 c -9.325,-12.031 -22.471,-21.111 -37.935,-25.266 -3.999,-1.071 -8.114,1.297 -9.189,5.297 -1.075,4.001 1.297,8.115 5.297,9.189 C 206.8,343.616 224,366.027 224,391.5 224,422.654 198.654,448 167.5,448 Z M 395.161,339.807 c -3.215,1.43 -5.004,4.902 -4.302,8.35 0.757,3.718 1.141,7.534 1.141,11.344 0,25.461 -17.19,47.869 -41.803,54.493 -2.017,0.543 -3.716,1.902 -4.688,3.751 C 335.691,436.406 316.529,448 295.5,448 264.346,448 239,422.654 239,391.5 c 0,-2.109 -0.098,-4.2 -0.281,-6.271 0.178,-0.641 0.281,-1.314 0.281,-2.012 V 135.5 c 0,-13.51 10.991,-24.5 24.5,-24.5 4.142,0 7.5,-3.357 7.5,-7.5 0,-4.143 -3.358,-7.5 -7.5,-7.5 -9.25,0 -17.761,3.205 -24.5,8.551 V 39.5 C 239,25.99 249.991,15 263.5,15 c 15.046,0 33.891,6.631 53.033,18.311 -13.657,3.284 -25.516,12.559 -31.782,25.462 -1.81,3.727 -0.256,8.214 3.47,10.022 3.726,1.81 8.213,0.257 10.023,-3.47 C 303.733,54.021 314.943,47 327.5,47 c 4.053,0 7.933,0.752 11.514,2.114 0.422,0.22 0.86,0.393 1.305,0.526 C 351.883,54.624 360,66.13 360,79.5 c 0,5.921 -1.577,11.627 -4.579,16.645 C 322.302,98.257 296,125.858 296,159.5 c 0,4.143 3.358,7.5 7.5,7.5 4.142,0 7.5,-3.357 7.5,-7.5 0,-26.743 21.757,-48.5 48.5,-48.5 26.743,0 48.5,21.757 48.5,48.5 0,6.244 -1.2,12.369 -3.567,18.205 -1.225,3.02 -0.36,6.484 2.14,8.574 11.075,9.257 17.427,22.825 17.427,37.221 0,26.743 -21.757,48.5 -48.5,48.5 -4.142,0 -7.5,3.357 -7.5,7.5 0,4.143 3.358,7.5 7.5,7.5 16.064,0 30.743,-6.008 41.939,-15.879 4.306,7.365 6.561,15.68 6.561,24.379 0,19.126 -11.32,36.518 -28.839,44.307 z"
   id="path3450"
   style="fill:#000000;fill-opacity:0.1" />
	<path
   d="m 355.7779,243.7221 c -15.536,0 -24.8319,-14.6831 -28.0229,-29.2761 C 358.881,210.384 383,183.715 383,151.5 c 0,-4.143 -3.358,-7.5 -7.5,-7.5 -4.142,0 -7.5,3.357 -7.5,7.5 0,26.743 -21.757,48.5 -48.5,48.5 -13.143,0 -25.447,-5.171 -34.646,-14.561 -2.898,-2.958 -7.647,-3.007 -10.606,-0.108 -2.959,2.899 -3.008,7.647 -0.109,10.606 10.402,10.617 23.839,17.103 38.395,18.677 3.444,22.829 19.4699,44.1081 43.2439,44.1081 4.142,0 7.5,-3.357 7.5,-7.5 0,-4.143 -3.358,-7.5 -7.5,-7.5 z"
   id="path3452"
   style="fill:#000000;fill-opacity:0.2"
   sodipodi:nodetypes="scsssscsccsss" />
	<path
   d="m 335.5,328 c -2.89,0 -5.73,0.212 -8.519,0.588 0.006,-0.363 0.019,-0.726 0.019,-1.088 0,-35.014 -28.486,-63.5 -63.5,-63.5 -4.142,0 -7.5,3.357 -7.5,7.5 0,4.143 3.358,7.5 7.5,7.5 26.743,0 48.5,21.757 48.5,48.5 0,1.714 -0.091,3.434 -0.269,5.133 C 288.462,342.063 272,364.889 272,391.5 c 0,4.143 3.358,7.5 7.5,7.5 4.142,0 7.5,-3.357 7.5,-7.5 0,-26.743 21.757,-48.5 48.5,-48.5 4.142,0 7.5,-3.357 7.5,-7.5 0,-4.143 -3.358,-7.5 -7.5,-7.5 z"
   id="path3454"
   style="fill:#000000;fill-opacity:0.2" />
</g><g
         id="g3458"
         style="fill:#000000;fill-opacity:0.2">
</g><g
         id="g3460"
         style="fill:#000000;fill-opacity:0.2">
</g><g
         id="g3462"
         style="fill:#000000;fill-opacity:0.2">
</g><g
         id="g3464"
         style="fill:#000000;fill-opacity:0.2">
</g><g
         id="g3466"
         style="fill:#000000;fill-opacity:0.2">
</g><g
         id="g3468"
         style="fill:#000000;fill-opacity:0.2">
</g><g
         id="g3470"
         style="fill:#000000;fill-opacity:0.2">
</g><g
         id="g3472"
         style="fill:#000000;fill-opacity:0.2">
</g><g
         id="g3474"
         style="fill:#000000;fill-opacity:0.2">
</g><g
         id="g3476"
         style="fill:#000000;fill-opacity:0.2">
</g><g
         id="g3478"
         style="fill:#000000;fill-opacity:0.2">
</g><g
         id="g3480"
         style="fill:#000000;fill-opacity:0.2">
</g><g
         id="g3482"
         style="fill:#000000;fill-opacity:0.2">
</g><g
         id="g3484"
         style="fill:#000000;fill-opacity:0.2">
</g><g
         id="g3486"
         style="fill:#000000;fill-opacity:0.2">
</g></g></g><style
     type="text/css"
     id="style139">
	.st0{fill:#BB9645;}
	.st1{fill:#0A0B0B;}
	.st2{fill:#FFFFFF;}
	.st3{fill:#231F20;}
	.st4{fill:url(#SVGID_1_);}
	.st5{fill:url(#SVGID_2_);}
	.st6{fill:url(#SVGID_3_);}
	.st7{fill:url(#SVGID_4_);}
	.st8{fill:url(#SVGID_5_);}
	.st9{fill:url(#SVGID_6_);}
	.st10{fill:url(#SVGID_7_);}
	.st11{fill:url(#SVGID_8_);}
	.st12{fill:url(#SVGID_9_);}
	.st13{fill:url(#SVGID_10_);}
	.st14{fill:url(#SVGID_11_);}
	.st15{fill:#1B1B1B;}
	.st16{fill:url(#SVGID_12_);}
	.st17{fill:url(#SVGID_13_);}
	.st18{fill:url(#SVGID_14_);}
	.st19{fill:url(#SVGID_15_);}
	.st20{fill:url(#SVGID_16_);}
	.st21{fill:url(#SVGID_17_);}
	.st22{fill:url(#SVGID_18_);}
	.st23{fill:url(#SVGID_19_);}
	.st24{fill:url(#SVGID_20_);}
	.st25{fill:url(#SVGID_21_);}
	.st26{fill:url(#SVGID_22_);}
</style></svg>
